<?xml version="1.0" encoding="UTF-8"?><svg id="a" xmlns="http://www.w3.org/2000/svg" viewBox="0 0 654.68 140.08"><defs><style>.b{letter-spacing:-.01em;}.b,.c,.d{font-family:RacingSansOne-Regular, Racing Sans One;font-size:92.31px;}.b,.d{fill:red;}</style></defs><text class="d" transform="translate(216.4 75.46) scale(1.84 1)"><tspan x="0" y="0">WIND</tspan></text><text class="b" transform="translate(0 75.62) scale(1.84 1)"><tspan x="0" y="0">R</tspan></text><text class="c" transform="translate(213.39 75.62) rotate(-180) scale(1.84 -1)"><tspan x="0" y="0">E</tspan></text><g><path d="M64.11,110.19c.16-.48,.23-1.14,.23-1.98,0-.48-.05-.96-.16-1.42-.11-.47-.29-.88-.55-1.26-.26-.37-.65-.66-1.18-.87-.52-.21-1.2-.31-2.04-.31-.94,0-1.8,.13-2.59,.39-.78,.26-1.48,.59-2.08,.99-.6,.4-1.07,.87-1.41,1.4-.34,.53-.51,1.09-.51,1.67,0,.84,.35,1.48,1.06,1.93,.71,.45,1.63,.82,2.78,1.11,1.15,.29,2.46,.53,3.92,.72,1.46,.19,2.98,.42,4.55,.68,1.31,.23,2.61,.52,3.92,.87,1.31,.35,2.47,.83,3.49,1.42,1.02,.6,1.84,1.37,2.47,2.32,.63,.95,.94,2.13,.94,3.55,0,2.03-.65,3.73-1.96,5.12-1.31,1.38-3.11,2.51-5.41,3.38-2.3,.87-5.03,1.5-8.19,1.88-3.16,.39-6.6,.58-10.31,.58s-6.83-.15-9.21-.46c-2.38-.31-4.25-.64-5.6-.99-1.62-.42-2.82-.9-3.61-1.45l2.67-6.62h13.8c-.05,.29-.1,.68-.16,1.18-.05,.5-.08,.89-.08,1.18,0,.39,.08,.79,.23,1.21,.16,.42,.4,.81,.75,1.16,.34,.35,.82,.64,1.45,.87,.63,.23,1.41,.34,2.35,.34,1.04,0,1.97-.15,2.78-.43,.81-.29,1.49-.65,2.04-1.09s.97-.92,1.25-1.45,.43-1.05,.43-1.57c0-.71-.27-1.3-.82-1.79s-1.29-.89-2.23-1.23c-.94-.34-2.03-.63-3.25-.87-1.23-.24-2.5-.49-3.8-.75-1.25-.23-2.58-.5-3.96-.82-1.39-.32-2.65-.77-3.8-1.35-1.15-.58-2.1-1.31-2.86-2.2-.76-.89-1.14-2.02-1.14-3.4,0-2.06,.85-3.79,2.55-5.19,1.7-1.4,3.84-2.54,6.43-3.4s5.42-1.49,8.51-1.86c3.08-.37,6.01-.56,8.78-.56,3.66,0,6.81,.27,9.45,.8,2.64,.53,4.64,1.15,6,1.86l-2.9,6.71h-13.01Z"/><path d="M81.99,111.2c1.93-.26,3.63-.55,5.09-.87,1.46-.32,2.81-.72,4.04-1.21,1.23-.48,2.4-1.08,3.53-1.79,1.12-.71,2.34-1.58,3.64-2.61h8.08l-2.27,6.47h6.11l-1.02,3.24h-6.19l-3.21,9.42c-.26,.74-.47,1.4-.63,1.98-.16,.58-.23,1.03-.23,1.35,0,.64,.38,1.05,1.14,1.21,.76,.16,2.18,.24,4.27,.24l-1.18,3.33c-.37,.06-.93,.11-1.69,.15-.76,.03-1.59,.07-2.51,.12-.92,.05-1.86,.08-2.82,.1-.97,.02-1.82,.02-2.55,.02-1.31,0-2.59-.06-3.84-.17-1.25-.11-2.38-.34-3.37-.68-.99-.34-1.79-.83-2.39-1.47-.6-.64-.9-1.51-.9-2.61,0-.39,.04-.87,.12-1.45s.25-1.22,.51-1.93l3.29-9.61h-6.11l1.1-3.24Z"/><path d="M115.46,111.2h12.78l1.18,3.62h.55c1.2-1.16,2.74-2.14,4.62-2.95,1.88-.8,4.36-1.21,7.45-1.21,.21,0,.54,0,.98,.02,.44,.02,.94,.06,1.49,.14,.55,.08,1.12,.19,1.72,.34,.6,.14,1.19,.35,1.76,.6l-3.45,9.95h-8.54c-.11-2-.39-3.39-.86-4.18-.47-.79-1.23-1.18-2.27-1.18-.52,0-1.08,.07-1.69,.22-.6,.15-1.21,.46-1.84,.94l-5.02,14.44h-15.99l7.13-20.76Z"/><path d="M162.1,131.96h-15.91l7.13-20.76h16.07l-7.29,20.76Zm9.33-27.09c0,.74-.25,1.38-.74,1.93-.5,.55-1.15,1.01-1.96,1.4-.81,.39-1.74,.68-2.78,.87-1.05,.19-2.12,.29-3.21,.29-2.09,0-3.84-.31-5.25-.92-1.41-.61-2.12-1.58-2.12-2.9,0-.71,.24-1.34,.71-1.91,.47-.56,1.11-1.03,1.92-1.4,.81-.37,1.75-.65,2.82-.85,1.07-.19,2.18-.29,3.33-.29,2.04,0,3.76,.31,5.17,.92,1.41,.61,2.12,1.56,2.12,2.85Z"/><path d="M190.95,114.29c1.1-.64,2.33-1.24,3.68-1.79,1.2-.45,2.61-.87,4.23-1.26,1.62-.39,3.42-.58,5.41-.58,2.72,0,4.96,.43,6.74,1.28,1.78,.85,2.67,2.02,2.67,3.5,0,.42-.08,.93-.23,1.52-.16,.6-.34,1.22-.55,1.86-.21,.64-.43,1.3-.67,1.96-.23,.66-.43,1.25-.59,1.76l-3.29,9.42h-15.91l4.31-12.6c.1-.42,.24-.84,.39-1.28,.16-.43,.24-.83,.24-1.18,0-.48-.2-.88-.59-1.18-.39-.31-.98-.46-1.76-.46-.94,0-1.84,.21-2.7,.63-.86,.42-1.53,.77-2,1.06l-5.17,15.02h-15.99l7.13-20.76h12.78l1.41,3.09h.47Z"/><path d="M247.86,111.2h12.7l-6.43,18.78c-.47,1.45-1.25,2.78-2.35,4.01-1.1,1.22-2.63,2.29-4.59,3.19s-4.42,1.61-7.37,2.12c-2.95,.51-6.54,.77-10.78,.77-.78,0-1.72,0-2.82-.02s-2.22-.03-3.37-.05c-1.15-.02-2.25-.04-3.29-.07-1.05-.03-1.88-.07-2.51-.1l1.49-3.48c1.67,.16,3.38,.25,5.13,.27,1.75,.02,3.25,.02,4.51,.02,1.57,0,2.89-.09,3.96-.27,1.07-.18,1.96-.46,2.67-.84,.71-.39,1.28-.9,1.72-1.54,.44-.64,.8-1.43,1.06-2.37l.94-3.14h-.55c-.31,.29-.77,.64-1.37,1.04-.6,.4-1.37,.79-2.31,1.16-.94,.37-2.05,.68-3.33,.92-1.28,.24-2.73,.36-4.35,.36-1.83,0-3.38-.17-4.66-.51-1.28-.34-2.31-.8-3.1-1.4-.78-.6-1.36-1.3-1.72-2.12-.37-.82-.55-1.71-.55-2.68,0-.42,.05-1.06,.16-1.93,.1-.87,.35-1.85,.75-2.95,.39-1.09,.97-2.21,1.72-3.36,.76-1.14,1.78-2.18,3.06-3.11,1.28-.93,2.87-1.71,4.78-2.32,1.91-.61,4.22-.92,6.94-.92,.84,0,1.75,.05,2.74,.15,.99,.1,1.96,.27,2.9,.53,.94,.26,1.78,.63,2.51,1.11,.73,.48,1.31,1.11,1.72,1.88h.47l3.53-3.14Zm-8.78,4.2c-1.25,0-2.3,.41-3.14,1.23-.84,.82-1.52,1.78-2.04,2.87-.52,1.09-.9,2.18-1.14,3.26-.24,1.08-.35,1.88-.35,2.39,0,.64,.17,1.18,.51,1.62s.95,.65,1.84,.65c.52,0,1.03-.08,1.53-.24,.5-.16,.97-.35,1.41-.56,.44-.21,.84-.43,1.18-.65,.34-.23,.59-.4,.75-.53l2.9-8.45c-.42-.35-.9-.71-1.45-1.06-.55-.35-1.21-.53-2-.53Z"/><path d="M325,108.59c0,1.9-.86,3.65-2.59,5.26-1.72,1.61-4.57,2.83-8.54,3.67l9.09,14.44h-17.48l-6.9-13.38h-.86l-4.62,13.38h-16.93l10.58-30.66h20.62c2.4,0,4.68,.09,6.82,.27,2.14,.18,4.01,.53,5.6,1.06,1.59,.53,2.86,1.27,3.8,2.22,.94,.95,1.41,2.2,1.41,3.74Zm-22.58,6.91c1.36,0,2.52-.28,3.49-.85,.97-.56,1.75-1.25,2.35-2.05,.6-.8,1.03-1.67,1.29-2.58s.39-1.71,.39-2.39c0-.84-.24-1.55-.71-2.15-.47-.6-1.49-.89-3.06-.89h-3.53l-3.92,10.91h3.68Z"/><path d="M341.46,122.26c-.21,.71-.35,1.38-.43,2.03-.08,.64-.12,1.22-.12,1.74,0,.29,.03,.61,.08,.97,.05,.35,.17,.68,.35,.99,.18,.31,.44,.56,.78,.77,.34,.21,.82,.31,1.45,.31,.47,0,1.01-.1,1.61-.29,.6-.19,1.2-.47,1.8-.82,.6-.35,1.18-.79,1.72-1.3,.55-.51,.98-1.09,1.29-1.74h12.86l-2.04,5.17c-1.05,.42-2.25,.77-3.61,1.06-1.36,.29-2.8,.52-4.31,.7-1.52,.18-3.06,.31-4.62,.39-1.57,.08-3.06,.12-4.47,.12-2.61,0-5.04-.15-7.29-.43s-4.21-.79-5.88-1.5c-1.67-.71-2.99-1.65-3.96-2.82-.97-1.17-1.45-2.63-1.45-4.37,0-1.58,.4-3.12,1.21-4.64,.81-1.51,2.17-2.86,4.08-4.03,1.91-1.17,4.47-2.12,7.68-2.82,3.21-.71,7.22-1.06,12.03-1.06,5.23,0,9.16,.5,11.8,1.5,2.64,1,3.96,2.56,3.96,4.68,0,.87-.21,1.81-.63,2.82-.42,1.01-1.05,1.88-1.88,2.58h-22.03Zm10.43-5.75c0-1-.26-1.67-.78-2.03-.52-.35-1.15-.53-1.88-.53-.84,0-1.61,.17-2.31,.51-.71,.34-1.35,.79-1.92,1.35-.58,.56-1.1,1.21-1.57,1.93-.47,.72-.86,1.49-1.18,2.29h8.94c.1-.39,.21-.79,.31-1.21,.1-.35,.2-.74,.27-1.16,.08-.42,.12-.8,.12-1.16Z"/><path d="M369.52,111.2h16.62l3.21,14.2,11.45-14.2h8.31l-17.79,20.76h-16.38l-5.41-20.76Z"/><path d="M423.38,122.26c-.21,.71-.35,1.38-.43,2.03-.08,.64-.12,1.22-.12,1.74,0,.29,.03,.61,.08,.97,.05,.35,.17,.68,.35,.99,.18,.31,.44,.56,.78,.77,.34,.21,.82,.31,1.45,.31,.47,0,1.01-.1,1.61-.29,.6-.19,1.2-.47,1.8-.82,.6-.35,1.18-.79,1.72-1.3,.55-.51,.98-1.09,1.29-1.74h12.86l-2.04,5.17c-1.05,.42-2.25,.77-3.61,1.06-1.36,.29-2.8,.52-4.31,.7-1.52,.18-3.06,.31-4.62,.39-1.57,.08-3.06,.12-4.47,.12-2.61,0-5.04-.15-7.29-.43s-4.21-.79-5.88-1.5c-1.67-.71-2.99-1.65-3.96-2.82-.97-1.17-1.45-2.63-1.45-4.37,0-1.58,.4-3.12,1.21-4.64,.81-1.51,2.17-2.86,4.08-4.03,1.91-1.17,4.47-2.12,7.68-2.82,3.21-.71,7.22-1.06,12.03-1.06,5.23,0,9.16,.5,11.8,1.5,2.64,1,3.96,2.56,3.96,4.68,0,.87-.21,1.81-.63,2.82-.42,1.01-1.05,1.88-1.88,2.58h-22.03Zm10.43-5.75c0-1-.26-1.67-.78-2.03-.52-.35-1.15-.53-1.88-.53-.84,0-1.61,.17-2.31,.51-.71,.34-1.35,.79-1.92,1.35-.58,.56-1.1,1.21-1.57,1.93-.47,.72-.86,1.49-1.18,2.29h8.94c.1-.39,.21-.79,.31-1.21,.1-.35,.2-.74,.27-1.16,.08-.42,.12-.8,.12-1.16Z"/><path d="M455.52,111.2h12.78l1.18,3.62h.55c1.2-1.16,2.74-2.14,4.62-2.95,1.88-.8,4.36-1.21,7.45-1.21,.21,0,.54,0,.98,.02,.44,.02,.94,.06,1.49,.14,.55,.08,1.12,.19,1.72,.34,.6,.14,1.19,.35,1.76,.6l-3.45,9.95h-8.54c-.11-2-.39-3.39-.86-4.18-.47-.79-1.23-1.18-2.27-1.18-.52,0-1.08,.07-1.69,.22-.6,.15-1.21,.46-1.84,.94l-5.02,14.44h-15.99l7.13-20.76Z"/><path d="M511.1,117.28c.05-.16,.1-.32,.16-.48,.05-.16,.08-.34,.08-.53,0-.58-.17-1.12-.51-1.62-.34-.5-1.01-.75-2-.75-.89,0-1.78,.23-2.67,.7-.89,.47-1.33,1.09-1.33,1.86,0,.52,.22,.93,.67,1.23,.44,.31,1.03,.56,1.76,.75,.73,.19,1.55,.35,2.47,.48,.91,.13,1.82,.26,2.71,.39,1.25,.19,2.44,.43,3.57,.7,1.12,.27,2.13,.64,3.02,1.09,.89,.45,1.59,1.01,2.12,1.67,.52,.66,.78,1.47,.78,2.44,0,1.35-.51,2.49-1.53,3.4-1.02,.92-2.43,1.66-4.23,2.22-1.8,.56-3.92,.96-6.35,1.18-2.43,.22-5.03,.34-7.8,.34-4.23,0-7.74-.19-10.5-.58-2.77-.39-4.7-.76-5.8-1.11l1.65-4.83h10.58c-.05,.16-.08,.31-.08,.46v.46c0,.74,.27,1.33,.82,1.76,.55,.43,1.5,.65,2.86,.65,1.51,0,2.6-.27,3.25-.8,.65-.53,.98-1.02,.98-1.47s-.27-.85-.82-1.18c-.55-.34-1.24-.63-2.08-.87-.84-.24-1.76-.45-2.78-.63-1.02-.18-2-.35-2.94-.51-.68-.1-1.45-.26-2.31-.48-.86-.23-1.69-.55-2.47-.97-.78-.42-1.44-.96-1.96-1.62-.52-.66-.78-1.49-.78-2.49,0-1.42,.56-2.6,1.69-3.55,1.12-.95,2.59-1.71,4.39-2.29,1.8-.58,3.84-1,6.12-1.26,2.27-.26,4.56-.39,6.86-.39,2.87,0,5.59,.16,8.15,.48,2.56,.32,4.65,.74,6.27,1.26l-1.8,4.88h-10.19Z"/><path d="M530.85,112.99c2.67-.8,5.4-1.39,8.19-1.76,2.79-.37,5.92-.56,9.37-.56s6.11,.16,8.31,.48c2.19,.32,3.95,.79,5.25,1.4,1.31,.61,2.22,1.34,2.74,2.17,.52,.84,.78,1.79,.78,2.85,0,.61-.07,1.27-.2,1.98-.13,.71-.27,1.3-.43,1.79l-3.68,10.62h-12.62l-1.41-3.09h-.47c-1.67,1.13-3.62,1.99-5.84,2.58-2.22,.6-4.43,.89-6.62,.89-1.25,0-2.48-.11-3.68-.34-1.2-.23-2.27-.57-3.21-1.04-.94-.47-1.7-1.06-2.27-1.79-.57-.72-.86-1.6-.86-2.63,0-1.67,.75-3,2.23-3.98,1.49-.98,3.45-1.72,5.88-2.22,2.43-.5,5.17-.81,8.23-.94,3.06-.13,6.13-.19,9.21-.19,.1-.32,.23-.78,.39-1.38,.16-.6,.24-1.12,.24-1.57,0-.58-.25-1.12-.75-1.62-.5-.5-1.53-.75-3.1-.75-1.83,0-3.17,.33-4.04,.99-.86,.66-1.42,1.46-1.69,2.39h-11.45l1.49-4.3Zm18.03,8.5h-1.41c-1.52,0-2.81,.12-3.88,.36-1.07,.24-1.93,.56-2.59,.94-.65,.39-1.14,.82-1.45,1.3s-.47,.97-.47,1.45c0,.77,.33,1.35,.98,1.74,.65,.39,1.42,.58,2.31,.58,1.1,0,2.18-.24,3.25-.72,1.07-.48,1.74-1.13,2-1.93l1.25-3.72Z"/><path d="M583.69,131.96h-15.99l11.13-32.45h16.07l-11.21,32.45Z"/></g></svg>